%TF.GenerationSoftware,KiCad,Pcbnew,(5.1.6)-1*%
%TF.CreationDate,2020-07-27T17:31:04+02:00*%
%TF.ProjectId,16_buttons_keypad_board,31365f62-7574-4746-9f6e-735f6b657970,rev?*%
%TF.SameCoordinates,Original*%
%TF.FileFunction,Legend,Top*%
%TF.FilePolarity,Positive*%
%FSLAX46Y46*%
G04 Gerber Fmt 4.6, Leading zero omitted, Abs format (unit mm)*
G04 Created by KiCad (PCBNEW (5.1.6)-1) date 2020-07-27 17:31:04*
%MOMM*%
%LPD*%
G01*
G04 APERTURE LIST*
%ADD10C,0.120000*%
%ADD11C,0.150000*%
G04 APERTURE END LIST*
D10*
%TO.C,D*%
X168700000Y-105500000D02*
X173200000Y-105500000D01*
X167450000Y-101500000D02*
X167450000Y-103000000D01*
X173200000Y-99000000D02*
X168700000Y-99000000D01*
X174450000Y-103000000D02*
X174450000Y-101500000D01*
%TO.C,C*%
X168825000Y-95125000D02*
X173325000Y-95125000D01*
X167575000Y-91125000D02*
X167575000Y-92625000D01*
X173325000Y-88625000D02*
X168825000Y-88625000D01*
X174575000Y-92625000D02*
X174575000Y-91125000D01*
%TO.C,B*%
X168825000Y-84475000D02*
X173325000Y-84475000D01*
X167575000Y-80475000D02*
X167575000Y-81975000D01*
X173325000Y-77975000D02*
X168825000Y-77975000D01*
X174575000Y-81975000D02*
X174575000Y-80475000D01*
%TO.C,A*%
X168725000Y-74075000D02*
X173225000Y-74075000D01*
X167475000Y-70075000D02*
X167475000Y-71575000D01*
X173225000Y-67575000D02*
X168725000Y-67575000D01*
X174475000Y-71575000D02*
X174475000Y-70075000D01*
%TO.C,#*%
X156150000Y-105450000D02*
X160650000Y-105450000D01*
X154900000Y-101450000D02*
X154900000Y-102950000D01*
X160650000Y-98950000D02*
X156150000Y-98950000D01*
X161900000Y-102950000D02*
X161900000Y-101450000D01*
%TO.C,9*%
X156100000Y-95125000D02*
X160600000Y-95125000D01*
X154850000Y-91125000D02*
X154850000Y-92625000D01*
X160600000Y-88625000D02*
X156100000Y-88625000D01*
X161850000Y-92625000D02*
X161850000Y-91125000D01*
%TO.C,6*%
X156300000Y-84425000D02*
X160800000Y-84425000D01*
X155050000Y-80425000D02*
X155050000Y-81925000D01*
X160800000Y-77925000D02*
X156300000Y-77925000D01*
X162050000Y-81925000D02*
X162050000Y-80425000D01*
%TO.C,3*%
X156300000Y-73900000D02*
X160800000Y-73900000D01*
X155050000Y-69900000D02*
X155050000Y-71400000D01*
X160800000Y-67400000D02*
X156300000Y-67400000D01*
X162050000Y-71400000D02*
X162050000Y-69900000D01*
%TO.C,0*%
X143400000Y-105550000D02*
X147900000Y-105550000D01*
X142150000Y-101550000D02*
X142150000Y-103050000D01*
X147900000Y-99050000D02*
X143400000Y-99050000D01*
X149150000Y-103050000D02*
X149150000Y-101550000D01*
%TO.C,8*%
X143400000Y-94850000D02*
X147900000Y-94850000D01*
X142150000Y-90850000D02*
X142150000Y-92350000D01*
X147900000Y-88350000D02*
X143400000Y-88350000D01*
X149150000Y-92350000D02*
X149150000Y-90850000D01*
%TO.C,5*%
X143400000Y-84450000D02*
X147900000Y-84450000D01*
X142150000Y-80450000D02*
X142150000Y-81950000D01*
X147900000Y-77950000D02*
X143400000Y-77950000D01*
X149150000Y-81950000D02*
X149150000Y-80450000D01*
%TO.C,2*%
X143400000Y-73800000D02*
X147900000Y-73800000D01*
X142150000Y-69800000D02*
X142150000Y-71300000D01*
X147900000Y-67300000D02*
X143400000Y-67300000D01*
X149150000Y-71300000D02*
X149150000Y-69800000D01*
%TO.C,\u002A*%
X129800000Y-105575000D02*
X134300000Y-105575000D01*
X128550000Y-101575000D02*
X128550000Y-103075000D01*
X134300000Y-99075000D02*
X129800000Y-99075000D01*
X135550000Y-103075000D02*
X135550000Y-101575000D01*
%TO.C,7*%
X130000000Y-94850000D02*
X134500000Y-94850000D01*
X128750000Y-90850000D02*
X128750000Y-92350000D01*
X134500000Y-88350000D02*
X130000000Y-88350000D01*
X135750000Y-92350000D02*
X135750000Y-90850000D01*
%TO.C,4*%
X129975000Y-84475000D02*
X134475000Y-84475000D01*
X128725000Y-80475000D02*
X128725000Y-81975000D01*
X134475000Y-77975000D02*
X129975000Y-77975000D01*
X135725000Y-81975000D02*
X135725000Y-80475000D01*
%TO.C,1*%
X129850000Y-73725000D02*
X134350000Y-73725000D01*
X128600000Y-69725000D02*
X128600000Y-71225000D01*
X134350000Y-67225000D02*
X129850000Y-67225000D01*
X135600000Y-71225000D02*
X135600000Y-69725000D01*
%TO.C,J1*%
X114445000Y-78445000D02*
X117105000Y-78445000D01*
X114445000Y-78445000D02*
X114445000Y-96285000D01*
X114445000Y-96285000D02*
X117105000Y-96285000D01*
X117105000Y-78445000D02*
X117105000Y-96285000D01*
X117105000Y-75845000D02*
X117105000Y-77175000D01*
X115775000Y-75845000D02*
X117105000Y-75845000D01*
%TO.C,REF\u002A\u002A*%
D11*
X114466666Y-104627380D02*
X114133333Y-104151190D01*
X113895238Y-104627380D02*
X113895238Y-103627380D01*
X114276190Y-103627380D01*
X114371428Y-103675000D01*
X114419047Y-103722619D01*
X114466666Y-103817857D01*
X114466666Y-103960714D01*
X114419047Y-104055952D01*
X114371428Y-104103571D01*
X114276190Y-104151190D01*
X113895238Y-104151190D01*
X114895238Y-104103571D02*
X115228571Y-104103571D01*
X115371428Y-104627380D02*
X114895238Y-104627380D01*
X114895238Y-103627380D01*
X115371428Y-103627380D01*
X116133333Y-104103571D02*
X115800000Y-104103571D01*
X115800000Y-104627380D02*
X115800000Y-103627380D01*
X116276190Y-103627380D01*
X116800000Y-103627380D02*
X116800000Y-103865476D01*
X116561904Y-103770238D02*
X116800000Y-103865476D01*
X117038095Y-103770238D01*
X116657142Y-104055952D02*
X116800000Y-103865476D01*
X116942857Y-104055952D01*
X117561904Y-103627380D02*
X117561904Y-103865476D01*
X117323809Y-103770238D02*
X117561904Y-103865476D01*
X117800000Y-103770238D01*
X117419047Y-104055952D02*
X117561904Y-103865476D01*
X117704761Y-104055952D01*
X119391666Y-66952380D02*
X119058333Y-66476190D01*
X118820238Y-66952380D02*
X118820238Y-65952380D01*
X119201190Y-65952380D01*
X119296428Y-66000000D01*
X119344047Y-66047619D01*
X119391666Y-66142857D01*
X119391666Y-66285714D01*
X119344047Y-66380952D01*
X119296428Y-66428571D01*
X119201190Y-66476190D01*
X118820238Y-66476190D01*
X119820238Y-66428571D02*
X120153571Y-66428571D01*
X120296428Y-66952380D02*
X119820238Y-66952380D01*
X119820238Y-65952380D01*
X120296428Y-65952380D01*
X121058333Y-66428571D02*
X120725000Y-66428571D01*
X120725000Y-66952380D02*
X120725000Y-65952380D01*
X121201190Y-65952380D01*
X121725000Y-65952380D02*
X121725000Y-66190476D01*
X121486904Y-66095238D02*
X121725000Y-66190476D01*
X121963095Y-66095238D01*
X121582142Y-66380952D02*
X121725000Y-66190476D01*
X121867857Y-66380952D01*
X122486904Y-65952380D02*
X122486904Y-66190476D01*
X122248809Y-66095238D02*
X122486904Y-66190476D01*
X122725000Y-66095238D01*
X122344047Y-66380952D02*
X122486904Y-66190476D01*
X122629761Y-66380952D01*
X178591666Y-73827380D02*
X178258333Y-73351190D01*
X178020238Y-73827380D02*
X178020238Y-72827380D01*
X178401190Y-72827380D01*
X178496428Y-72875000D01*
X178544047Y-72922619D01*
X178591666Y-73017857D01*
X178591666Y-73160714D01*
X178544047Y-73255952D01*
X178496428Y-73303571D01*
X178401190Y-73351190D01*
X178020238Y-73351190D01*
X179020238Y-73303571D02*
X179353571Y-73303571D01*
X179496428Y-73827380D02*
X179020238Y-73827380D01*
X179020238Y-72827380D01*
X179496428Y-72827380D01*
X180258333Y-73303571D02*
X179925000Y-73303571D01*
X179925000Y-73827380D02*
X179925000Y-72827380D01*
X180401190Y-72827380D01*
X180925000Y-72827380D02*
X180925000Y-73065476D01*
X180686904Y-72970238D02*
X180925000Y-73065476D01*
X181163095Y-72970238D01*
X180782142Y-73255952D02*
X180925000Y-73065476D01*
X181067857Y-73255952D01*
X181686904Y-72827380D02*
X181686904Y-73065476D01*
X181448809Y-72970238D02*
X181686904Y-73065476D01*
X181925000Y-72970238D01*
X181544047Y-73255952D02*
X181686904Y-73065476D01*
X181829761Y-73255952D01*
X177191666Y-104327380D02*
X176858333Y-103851190D01*
X176620238Y-104327380D02*
X176620238Y-103327380D01*
X177001190Y-103327380D01*
X177096428Y-103375000D01*
X177144047Y-103422619D01*
X177191666Y-103517857D01*
X177191666Y-103660714D01*
X177144047Y-103755952D01*
X177096428Y-103803571D01*
X177001190Y-103851190D01*
X176620238Y-103851190D01*
X177620238Y-103803571D02*
X177953571Y-103803571D01*
X178096428Y-104327380D02*
X177620238Y-104327380D01*
X177620238Y-103327380D01*
X178096428Y-103327380D01*
X178858333Y-103803571D02*
X178525000Y-103803571D01*
X178525000Y-104327380D02*
X178525000Y-103327380D01*
X179001190Y-103327380D01*
X179525000Y-103327380D02*
X179525000Y-103565476D01*
X179286904Y-103470238D02*
X179525000Y-103565476D01*
X179763095Y-103470238D01*
X179382142Y-103755952D02*
X179525000Y-103565476D01*
X179667857Y-103755952D01*
X180286904Y-103327380D02*
X180286904Y-103565476D01*
X180048809Y-103470238D02*
X180286904Y-103565476D01*
X180525000Y-103470238D01*
X180144047Y-103755952D02*
X180286904Y-103565476D01*
X180429761Y-103755952D01*
%TO.C,D*%
X170688095Y-98452380D02*
X170688095Y-97452380D01*
X170926190Y-97452380D01*
X171069047Y-97500000D01*
X171164285Y-97595238D01*
X171211904Y-97690476D01*
X171259523Y-97880952D01*
X171259523Y-98023809D01*
X171211904Y-98214285D01*
X171164285Y-98309523D01*
X171069047Y-98404761D01*
X170926190Y-98452380D01*
X170688095Y-98452380D01*
%TO.C,C*%
X171384523Y-87982142D02*
X171336904Y-88029761D01*
X171194047Y-88077380D01*
X171098809Y-88077380D01*
X170955952Y-88029761D01*
X170860714Y-87934523D01*
X170813095Y-87839285D01*
X170765476Y-87648809D01*
X170765476Y-87505952D01*
X170813095Y-87315476D01*
X170860714Y-87220238D01*
X170955952Y-87125000D01*
X171098809Y-87077380D01*
X171194047Y-87077380D01*
X171336904Y-87125000D01*
X171384523Y-87172619D01*
%TO.C,B*%
X171146428Y-76903571D02*
X171289285Y-76951190D01*
X171336904Y-76998809D01*
X171384523Y-77094047D01*
X171384523Y-77236904D01*
X171336904Y-77332142D01*
X171289285Y-77379761D01*
X171194047Y-77427380D01*
X170813095Y-77427380D01*
X170813095Y-76427380D01*
X171146428Y-76427380D01*
X171241666Y-76475000D01*
X171289285Y-76522619D01*
X171336904Y-76617857D01*
X171336904Y-76713095D01*
X171289285Y-76808333D01*
X171241666Y-76855952D01*
X171146428Y-76903571D01*
X170813095Y-76903571D01*
%TO.C,A*%
X170736904Y-66741666D02*
X171213095Y-66741666D01*
X170641666Y-67027380D02*
X170975000Y-66027380D01*
X171308333Y-67027380D01*
%TO.C,#*%
X158090476Y-97735714D02*
X158804761Y-97735714D01*
X158376190Y-97307142D02*
X158090476Y-98592857D01*
X158709523Y-98164285D02*
X157995238Y-98164285D01*
X158423809Y-98592857D02*
X158709523Y-97307142D01*
%TO.C,9*%
X158159523Y-88077380D02*
X158350000Y-88077380D01*
X158445238Y-88029761D01*
X158492857Y-87982142D01*
X158588095Y-87839285D01*
X158635714Y-87648809D01*
X158635714Y-87267857D01*
X158588095Y-87172619D01*
X158540476Y-87125000D01*
X158445238Y-87077380D01*
X158254761Y-87077380D01*
X158159523Y-87125000D01*
X158111904Y-87172619D01*
X158064285Y-87267857D01*
X158064285Y-87505952D01*
X158111904Y-87601190D01*
X158159523Y-87648809D01*
X158254761Y-87696428D01*
X158445238Y-87696428D01*
X158540476Y-87648809D01*
X158588095Y-87601190D01*
X158635714Y-87505952D01*
%TO.C,6*%
X158740476Y-76377380D02*
X158550000Y-76377380D01*
X158454761Y-76425000D01*
X158407142Y-76472619D01*
X158311904Y-76615476D01*
X158264285Y-76805952D01*
X158264285Y-77186904D01*
X158311904Y-77282142D01*
X158359523Y-77329761D01*
X158454761Y-77377380D01*
X158645238Y-77377380D01*
X158740476Y-77329761D01*
X158788095Y-77282142D01*
X158835714Y-77186904D01*
X158835714Y-76948809D01*
X158788095Y-76853571D01*
X158740476Y-76805952D01*
X158645238Y-76758333D01*
X158454761Y-76758333D01*
X158359523Y-76805952D01*
X158311904Y-76853571D01*
X158264285Y-76948809D01*
%TO.C,3*%
X158216666Y-65852380D02*
X158835714Y-65852380D01*
X158502380Y-66233333D01*
X158645238Y-66233333D01*
X158740476Y-66280952D01*
X158788095Y-66328571D01*
X158835714Y-66423809D01*
X158835714Y-66661904D01*
X158788095Y-66757142D01*
X158740476Y-66804761D01*
X158645238Y-66852380D01*
X158359523Y-66852380D01*
X158264285Y-66804761D01*
X158216666Y-66757142D01*
%TO.C,0*%
X145602380Y-97502380D02*
X145697619Y-97502380D01*
X145792857Y-97550000D01*
X145840476Y-97597619D01*
X145888095Y-97692857D01*
X145935714Y-97883333D01*
X145935714Y-98121428D01*
X145888095Y-98311904D01*
X145840476Y-98407142D01*
X145792857Y-98454761D01*
X145697619Y-98502380D01*
X145602380Y-98502380D01*
X145507142Y-98454761D01*
X145459523Y-98407142D01*
X145411904Y-98311904D01*
X145364285Y-98121428D01*
X145364285Y-97883333D01*
X145411904Y-97692857D01*
X145459523Y-97597619D01*
X145507142Y-97550000D01*
X145602380Y-97502380D01*
%TO.C,8*%
X145554761Y-87230952D02*
X145459523Y-87183333D01*
X145411904Y-87135714D01*
X145364285Y-87040476D01*
X145364285Y-86992857D01*
X145411904Y-86897619D01*
X145459523Y-86850000D01*
X145554761Y-86802380D01*
X145745238Y-86802380D01*
X145840476Y-86850000D01*
X145888095Y-86897619D01*
X145935714Y-86992857D01*
X145935714Y-87040476D01*
X145888095Y-87135714D01*
X145840476Y-87183333D01*
X145745238Y-87230952D01*
X145554761Y-87230952D01*
X145459523Y-87278571D01*
X145411904Y-87326190D01*
X145364285Y-87421428D01*
X145364285Y-87611904D01*
X145411904Y-87707142D01*
X145459523Y-87754761D01*
X145554761Y-87802380D01*
X145745238Y-87802380D01*
X145840476Y-87754761D01*
X145888095Y-87707142D01*
X145935714Y-87611904D01*
X145935714Y-87421428D01*
X145888095Y-87326190D01*
X145840476Y-87278571D01*
X145745238Y-87230952D01*
%TO.C,5*%
X145888095Y-76402380D02*
X145411904Y-76402380D01*
X145364285Y-76878571D01*
X145411904Y-76830952D01*
X145507142Y-76783333D01*
X145745238Y-76783333D01*
X145840476Y-76830952D01*
X145888095Y-76878571D01*
X145935714Y-76973809D01*
X145935714Y-77211904D01*
X145888095Y-77307142D01*
X145840476Y-77354761D01*
X145745238Y-77402380D01*
X145507142Y-77402380D01*
X145411904Y-77354761D01*
X145364285Y-77307142D01*
%TO.C,2*%
X145364285Y-65847619D02*
X145411904Y-65800000D01*
X145507142Y-65752380D01*
X145745238Y-65752380D01*
X145840476Y-65800000D01*
X145888095Y-65847619D01*
X145935714Y-65942857D01*
X145935714Y-66038095D01*
X145888095Y-66180952D01*
X145316666Y-66752380D01*
X145935714Y-66752380D01*
%TO.C,\u002A*%
X132050000Y-97527380D02*
X132050000Y-97765476D01*
X131811904Y-97670238D02*
X132050000Y-97765476D01*
X132288095Y-97670238D01*
X131907142Y-97955952D02*
X132050000Y-97765476D01*
X132192857Y-97955952D01*
%TO.C,7*%
X131916666Y-86802380D02*
X132583333Y-86802380D01*
X132154761Y-87802380D01*
%TO.C,4*%
X132415476Y-76760714D02*
X132415476Y-77427380D01*
X132177380Y-76379761D02*
X131939285Y-77094047D01*
X132558333Y-77094047D01*
%TO.C,1*%
X132385714Y-66677380D02*
X131814285Y-66677380D01*
X132100000Y-66677380D02*
X132100000Y-65677380D01*
X132004761Y-65820238D01*
X131909523Y-65915476D01*
X131814285Y-65963095D01*
%TO.C,J1*%
X115441666Y-73857380D02*
X115441666Y-74571666D01*
X115394047Y-74714523D01*
X115298809Y-74809761D01*
X115155952Y-74857380D01*
X115060714Y-74857380D01*
X116441666Y-74857380D02*
X115870238Y-74857380D01*
X116155952Y-74857380D02*
X116155952Y-73857380D01*
X116060714Y-74000238D01*
X115965476Y-74095476D01*
X115870238Y-74143095D01*
%TD*%
M02*
