%TF.GenerationSoftware,KiCad,Pcbnew,(5.1.6)-1*%
%TF.CreationDate,2020-07-27T17:31:04+02:00*%
%TF.ProjectId,16_buttons_keypad_board,31365f62-7574-4746-9f6e-735f6b657970,rev?*%
%TF.SameCoordinates,Original*%
%TF.FileFunction,Soldermask,Top*%
%TF.FilePolarity,Negative*%
%FSLAX46Y46*%
G04 Gerber Fmt 4.6, Leading zero omitted, Abs format (unit mm)*
G04 Created by KiCad (PCBNEW (5.1.6)-1) date 2020-07-27 17:31:04*
%MOMM*%
%LPD*%
G01*
G04 APERTURE LIST*
%ADD10C,4.500000*%
%ADD11C,2.100000*%
%ADD12O,1.800000X1.800000*%
%ADD13R,1.800000X1.800000*%
G04 APERTURE END LIST*
D10*
%TO.C,REF\u002A\u002A*%
X115800000Y-107375000D03*
%TD*%
%TO.C,REF\u002A\u002A*%
X116025000Y-66875000D03*
%TD*%
%TO.C,REF\u002A\u002A*%
X179075000Y-67600000D03*
%TD*%
%TO.C,REF\u002A\u002A*%
X178525000Y-107075000D03*
%TD*%
D11*
%TO.C,D*%
X174200000Y-100000000D03*
X174200000Y-104500000D03*
X167700000Y-100000000D03*
X167700000Y-104500000D03*
%TD*%
%TO.C,C*%
X174325000Y-89625000D03*
X174325000Y-94125000D03*
X167825000Y-89625000D03*
X167825000Y-94125000D03*
%TD*%
%TO.C,B*%
X174325000Y-78975000D03*
X174325000Y-83475000D03*
X167825000Y-78975000D03*
X167825000Y-83475000D03*
%TD*%
%TO.C,A*%
X174225000Y-68575000D03*
X174225000Y-73075000D03*
X167725000Y-68575000D03*
X167725000Y-73075000D03*
%TD*%
%TO.C,#*%
X161650000Y-99950000D03*
X161650000Y-104450000D03*
X155150000Y-99950000D03*
X155150000Y-104450000D03*
%TD*%
%TO.C,9*%
X161600000Y-89625000D03*
X161600000Y-94125000D03*
X155100000Y-89625000D03*
X155100000Y-94125000D03*
%TD*%
%TO.C,6*%
X161800000Y-78925000D03*
X161800000Y-83425000D03*
X155300000Y-78925000D03*
X155300000Y-83425000D03*
%TD*%
%TO.C,3*%
X161800000Y-68400000D03*
X161800000Y-72900000D03*
X155300000Y-68400000D03*
X155300000Y-72900000D03*
%TD*%
%TO.C,0*%
X148900000Y-100050000D03*
X148900000Y-104550000D03*
X142400000Y-100050000D03*
X142400000Y-104550000D03*
%TD*%
%TO.C,8*%
X148900000Y-89350000D03*
X148900000Y-93850000D03*
X142400000Y-89350000D03*
X142400000Y-93850000D03*
%TD*%
%TO.C,5*%
X148900000Y-78950000D03*
X148900000Y-83450000D03*
X142400000Y-78950000D03*
X142400000Y-83450000D03*
%TD*%
%TO.C,2*%
X148900000Y-68300000D03*
X148900000Y-72800000D03*
X142400000Y-68300000D03*
X142400000Y-72800000D03*
%TD*%
%TO.C,\u002A*%
X135300000Y-100075000D03*
X135300000Y-104575000D03*
X128800000Y-100075000D03*
X128800000Y-104575000D03*
%TD*%
%TO.C,7*%
X135500000Y-89350000D03*
X135500000Y-93850000D03*
X129000000Y-89350000D03*
X129000000Y-93850000D03*
%TD*%
%TO.C,4*%
X135475000Y-78975000D03*
X135475000Y-83475000D03*
X128975000Y-78975000D03*
X128975000Y-83475000D03*
%TD*%
%TO.C,1*%
X135350000Y-68225000D03*
X135350000Y-72725000D03*
X128850000Y-68225000D03*
X128850000Y-72725000D03*
%TD*%
D12*
%TO.C,J1*%
X115775000Y-94955000D03*
X115775000Y-92415000D03*
X115775000Y-89875000D03*
X115775000Y-87335000D03*
X115775000Y-84795000D03*
X115775000Y-82255000D03*
X115775000Y-79715000D03*
D13*
X115775000Y-77175000D03*
%TD*%
M02*
