%TF.GenerationSoftware,KiCad,Pcbnew,(5.1.6)-1*%
%TF.CreationDate,2020-07-27T17:31:04+02:00*%
%TF.ProjectId,16_buttons_keypad_board,31365f62-7574-4746-9f6e-735f6b657970,rev?*%
%TF.SameCoordinates,Original*%
%TF.FileFunction,Copper,L2,Bot*%
%TF.FilePolarity,Positive*%
%FSLAX46Y46*%
G04 Gerber Fmt 4.6, Leading zero omitted, Abs format (unit mm)*
G04 Created by KiCad (PCBNEW (5.1.6)-1) date 2020-07-27 17:31:04*
%MOMM*%
%LPD*%
G01*
G04 APERTURE LIST*
%TA.AperFunction,ComponentPad*%
%ADD10C,4.400000*%
%TD*%
%TA.AperFunction,ComponentPad*%
%ADD11C,2.000000*%
%TD*%
%TA.AperFunction,ComponentPad*%
%ADD12O,1.700000X1.700000*%
%TD*%
%TA.AperFunction,ComponentPad*%
%ADD13R,1.700000X1.700000*%
%TD*%
%TA.AperFunction,Conductor*%
%ADD14C,0.500000*%
%TD*%
G04 APERTURE END LIST*
D10*
%TO.P,REF\u002A\u002A,1*%
%TO.N,N/C*%
X115800000Y-107375000D03*
%TD*%
%TO.P,REF\u002A\u002A,1*%
%TO.N,N/C*%
X116025000Y-66875000D03*
%TD*%
%TO.P,REF\u002A\u002A,1*%
%TO.N,N/C*%
X179075000Y-67600000D03*
%TD*%
%TO.P,REF\u002A\u002A,1*%
%TO.N,N/C*%
X178525000Y-107075000D03*
%TD*%
D11*
%TO.P,D,1*%
%TO.N,/R4*%
X174200000Y-100000000D03*
%TO.P,D,2*%
%TO.N,/C4*%
X174200000Y-104500000D03*
%TO.P,D,1*%
%TO.N,/R4*%
X167700000Y-100000000D03*
%TO.P,D,2*%
%TO.N,/C4*%
X167700000Y-104500000D03*
%TD*%
%TO.P,C,1*%
%TO.N,/R3*%
X174325000Y-89625000D03*
%TO.P,C,2*%
%TO.N,/C4*%
X174325000Y-94125000D03*
%TO.P,C,1*%
%TO.N,/R3*%
X167825000Y-89625000D03*
%TO.P,C,2*%
%TO.N,/C4*%
X167825000Y-94125000D03*
%TD*%
%TO.P,B,1*%
%TO.N,/R2*%
X174325000Y-78975000D03*
%TO.P,B,2*%
%TO.N,/C4*%
X174325000Y-83475000D03*
%TO.P,B,1*%
%TO.N,/R2*%
X167825000Y-78975000D03*
%TO.P,B,2*%
%TO.N,/C4*%
X167825000Y-83475000D03*
%TD*%
%TO.P,A,1*%
%TO.N,/R1*%
X174225000Y-68575000D03*
%TO.P,A,2*%
%TO.N,/C4*%
X174225000Y-73075000D03*
%TO.P,A,1*%
%TO.N,/R1*%
X167725000Y-68575000D03*
%TO.P,A,2*%
%TO.N,/C4*%
X167725000Y-73075000D03*
%TD*%
%TO.P,#,1*%
%TO.N,/R4*%
X161650000Y-99950000D03*
%TO.P,#,2*%
%TO.N,/C3*%
X161650000Y-104450000D03*
%TO.P,#,1*%
%TO.N,/R4*%
X155150000Y-99950000D03*
%TO.P,#,2*%
%TO.N,/C3*%
X155150000Y-104450000D03*
%TD*%
%TO.P,9,1*%
%TO.N,/R3*%
X161600000Y-89625000D03*
%TO.P,9,2*%
%TO.N,/C3*%
X161600000Y-94125000D03*
%TO.P,9,1*%
%TO.N,/R3*%
X155100000Y-89625000D03*
%TO.P,9,2*%
%TO.N,/C3*%
X155100000Y-94125000D03*
%TD*%
%TO.P,6,1*%
%TO.N,/R2*%
X161800000Y-78925000D03*
%TO.P,6,2*%
%TO.N,/C3*%
X161800000Y-83425000D03*
%TO.P,6,1*%
%TO.N,/R2*%
X155300000Y-78925000D03*
%TO.P,6,2*%
%TO.N,/C3*%
X155300000Y-83425000D03*
%TD*%
%TO.P,3,1*%
%TO.N,/R1*%
X161800000Y-68400000D03*
%TO.P,3,2*%
%TO.N,/C3*%
X161800000Y-72900000D03*
%TO.P,3,1*%
%TO.N,/R1*%
X155300000Y-68400000D03*
%TO.P,3,2*%
%TO.N,/C3*%
X155300000Y-72900000D03*
%TD*%
%TO.P,0,1*%
%TO.N,/R4*%
X148900000Y-100050000D03*
%TO.P,0,2*%
%TO.N,/C2*%
X148900000Y-104550000D03*
%TO.P,0,1*%
%TO.N,/R4*%
X142400000Y-100050000D03*
%TO.P,0,2*%
%TO.N,/C2*%
X142400000Y-104550000D03*
%TD*%
%TO.P,8,1*%
%TO.N,/R3*%
X148900000Y-89350000D03*
%TO.P,8,2*%
%TO.N,/C2*%
X148900000Y-93850000D03*
%TO.P,8,1*%
%TO.N,/R3*%
X142400000Y-89350000D03*
%TO.P,8,2*%
%TO.N,/C2*%
X142400000Y-93850000D03*
%TD*%
%TO.P,5,1*%
%TO.N,/R2*%
X148900000Y-78950000D03*
%TO.P,5,2*%
%TO.N,/C2*%
X148900000Y-83450000D03*
%TO.P,5,1*%
%TO.N,/R2*%
X142400000Y-78950000D03*
%TO.P,5,2*%
%TO.N,/C2*%
X142400000Y-83450000D03*
%TD*%
%TO.P,2,1*%
%TO.N,/R1*%
X148900000Y-68300000D03*
%TO.P,2,2*%
%TO.N,/C2*%
X148900000Y-72800000D03*
%TO.P,2,1*%
%TO.N,/R1*%
X142400000Y-68300000D03*
%TO.P,2,2*%
%TO.N,/C2*%
X142400000Y-72800000D03*
%TD*%
%TO.P,\u002A,1*%
%TO.N,/R4*%
X135300000Y-100075000D03*
%TO.P,\u002A,2*%
%TO.N,/C1*%
X135300000Y-104575000D03*
%TO.P,\u002A,1*%
%TO.N,/R4*%
X128800000Y-100075000D03*
%TO.P,\u002A,2*%
%TO.N,/C1*%
X128800000Y-104575000D03*
%TD*%
%TO.P,7,1*%
%TO.N,/R3*%
X135500000Y-89350000D03*
%TO.P,7,2*%
%TO.N,/C1*%
X135500000Y-93850000D03*
%TO.P,7,1*%
%TO.N,/R3*%
X129000000Y-89350000D03*
%TO.P,7,2*%
%TO.N,/C1*%
X129000000Y-93850000D03*
%TD*%
%TO.P,4,1*%
%TO.N,/R2*%
X135475000Y-78975000D03*
%TO.P,4,2*%
%TO.N,/C1*%
X135475000Y-83475000D03*
%TO.P,4,1*%
%TO.N,/R2*%
X128975000Y-78975000D03*
%TO.P,4,2*%
%TO.N,/C1*%
X128975000Y-83475000D03*
%TD*%
%TO.P,1,1*%
%TO.N,/R1*%
X135350000Y-68225000D03*
%TO.P,1,2*%
%TO.N,/C1*%
X135350000Y-72725000D03*
%TO.P,1,1*%
%TO.N,/R1*%
X128850000Y-68225000D03*
%TO.P,1,2*%
%TO.N,/C1*%
X128850000Y-72725000D03*
%TD*%
D12*
%TO.P,J1,8*%
%TO.N,/C4*%
X115775000Y-94955000D03*
%TO.P,J1,7*%
%TO.N,/C3*%
X115775000Y-92415000D03*
%TO.P,J1,6*%
%TO.N,/C2*%
X115775000Y-89875000D03*
%TO.P,J1,5*%
%TO.N,/C1*%
X115775000Y-87335000D03*
%TO.P,J1,4*%
%TO.N,/R4*%
X115775000Y-84795000D03*
%TO.P,J1,3*%
%TO.N,/R3*%
X115775000Y-82255000D03*
%TO.P,J1,2*%
%TO.N,/R2*%
X115775000Y-79715000D03*
D13*
%TO.P,J1,1*%
%TO.N,/R1*%
X115775000Y-77175000D03*
%TD*%
D14*
%TO.N,/C4*%
X172874999Y-82024999D02*
X174325000Y-83475000D01*
X172874999Y-74425001D02*
X172874999Y-82024999D01*
X174225000Y-73075000D02*
X172874999Y-74425001D01*
X172749999Y-95700001D02*
X172749999Y-103049999D01*
X172749999Y-103049999D02*
X174200000Y-104500000D01*
X174325000Y-94125000D02*
X172749999Y-95700001D01*
X172874999Y-92674999D02*
X174325000Y-94125000D01*
X172874999Y-84925001D02*
X172874999Y-92674999D01*
X174325000Y-83475000D02*
X172874999Y-84925001D01*
%TO.N,/C3*%
X161800000Y-83425000D02*
X163225000Y-84850000D01*
X163225000Y-92500000D02*
X161600000Y-94125000D01*
X163225000Y-84850000D02*
X163225000Y-92500000D01*
X161600000Y-94125000D02*
X163825000Y-96350000D01*
X163825000Y-102275000D02*
X161650000Y-104450000D01*
X163825000Y-96350000D02*
X163825000Y-102275000D01*
X163250001Y-81974999D02*
X161800000Y-83425000D01*
X163250001Y-74350001D02*
X163250001Y-81974999D01*
X161800000Y-72900000D02*
X163250001Y-74350001D01*
%TO.N,/C2*%
X150350001Y-81999999D02*
X148900000Y-83450000D01*
X150350001Y-74250001D02*
X150350001Y-81999999D01*
X148900000Y-72800000D02*
X150350001Y-74250001D01*
X150350001Y-92399999D02*
X148900000Y-93850000D01*
X150350001Y-84900001D02*
X150350001Y-92399999D01*
X148900000Y-83450000D02*
X150350001Y-84900001D01*
X150350001Y-103099999D02*
X148900000Y-104550000D01*
X150350001Y-95300001D02*
X150350001Y-103099999D01*
X148900000Y-93850000D02*
X150350001Y-95300001D01*
%TO.N,/C1*%
X136925001Y-82024999D02*
X135475000Y-83475000D01*
X136925001Y-74300001D02*
X136925001Y-82024999D01*
X135350000Y-72725000D02*
X136925001Y-74300001D01*
X136950001Y-84950001D02*
X136950001Y-92399999D01*
X136950001Y-92399999D02*
X135500000Y-93850000D01*
X135475000Y-83475000D02*
X136950001Y-84950001D01*
X136750001Y-103124999D02*
X135300000Y-104575000D01*
X136750001Y-95100001D02*
X136750001Y-103124999D01*
X135500000Y-93850000D02*
X136750001Y-95100001D01*
%TD*%
M02*
