M48
; DRILL file {KiCad (5.1.6)-1} date 07/27/20 17:31:07
; FORMAT={-:-/ absolute / metric / decimal}
; #@! TF.CreationDate,2020-07-27T17:31:07+02:00
; #@! TF.GenerationSoftware,Kicad,Pcbnew,(5.1.6)-1
; #@! TF.FileFunction,Plated,1,2,PTH
FMAT,2
METRIC
T1C1.000
T2C1.100
T3C2.200
%
G90
G05
T1
X115.775Y-77.175
X115.775Y-79.715
X115.775Y-82.255
X115.775Y-84.795
X115.775Y-87.335
X115.775Y-89.875
X115.775Y-92.415
X115.775Y-94.955
T2
X155.15Y-99.95
X155.15Y-104.45
X161.65Y-99.95
X161.65Y-104.45
X155.3Y-68.4
X155.3Y-72.9
X161.8Y-68.4
X161.8Y-72.9
X129.0Y-89.35
X129.0Y-93.85
X135.5Y-89.35
X135.5Y-93.85
X142.4Y-89.35
X142.4Y-93.85
X148.9Y-89.35
X148.9Y-93.85
X128.975Y-78.975
X128.975Y-83.475
X135.475Y-78.975
X135.475Y-83.475
X155.1Y-89.625
X155.1Y-94.125
X161.6Y-89.625
X161.6Y-94.125
X167.825Y-89.625
X167.825Y-94.125
X174.325Y-89.625
X174.325Y-94.125
X142.4Y-100.05
X142.4Y-104.55
X148.9Y-100.05
X148.9Y-104.55
X155.3Y-78.925
X155.3Y-83.425
X161.8Y-78.925
X161.8Y-83.425
X142.4Y-68.3
X142.4Y-72.8
X148.9Y-68.3
X148.9Y-72.8
X128.85Y-68.225
X128.85Y-72.725
X135.35Y-68.225
X135.35Y-72.725
X167.825Y-78.975
X167.825Y-83.475
X174.325Y-78.975
X174.325Y-83.475
X167.725Y-68.575
X167.725Y-73.075
X174.225Y-68.575
X174.225Y-73.075
X167.7Y-100.0
X167.7Y-104.5
X174.2Y-100.0
X174.2Y-104.5
X128.8Y-100.075
X128.8Y-104.575
X135.3Y-100.075
X135.3Y-104.575
X142.4Y-78.95
X142.4Y-83.45
X148.9Y-78.95
X148.9Y-83.45
T3
X179.075Y-67.6
X178.525Y-107.075
X116.025Y-66.875
X115.8Y-107.375
T0
M30
